<svg preserveAspectRatio="none" overflow="visible" style="display: block;" width="75" height="75" viewBox="0 0 75 75" fill="none" xmlns="http://www.w3.org/2000/svg">
<path id="Union" d="M37.5 0C52.6025 0 66.1622 8.98914 72.0508 22.9004C74.0136 27.5393 75 32.4366 75 37.5C75 58.1737 58.1737 75 37.5 75C16.8263 75 0 58.1737 0 37.5C0 16.8263 16.8263 0 37.5 0ZM37.5 5C19.575 5 5 19.575 5 37.5C5 55.425 19.575 70 37.5 70C55.425 70 70 55.425 70 37.5C70 33.1105 69.1504 28.8623 67.4512 24.8486C62.3486 12.7881 50.5862 5 37.5 5ZM51.3867 31.3379C52.041 31.1621 52.7002 31.2647 53.2764 31.6016L53.2666 31.5918C53.8427 31.9288 54.2578 32.4805 54.4189 33.1299C54.8095 34.5947 54.9951 36.0695 54.9951 37.5049C54.995 47.1532 47.1435 55.0049 37.4951 55.0049C27.8467 55.0049 19.9953 47.1532 19.9951 37.5049C19.9951 36.0792 20.1954 34.6044 20.5713 33.1299C20.8594 32.0312 21.8457 31.2549 22.998 31.2549C23.1982 31.2549 23.4082 31.2793 23.6084 31.3281C24.9462 31.6797 25.7617 33.042 25.4102 34.3799C25.1368 35.454 25 36.4796 25 37.5049C25.0002 44.3944 30.6105 50.0049 37.5 50.0049C44.3895 50.0049 49.9998 44.3944 50 37.5049C50 36.4942 49.8632 35.4442 49.5898 34.3799C49.4239 33.7403 49.5265 33.0664 49.8633 32.4902C50.2002 31.9141 50.7374 31.499 51.3867 31.3379ZM37.5 18.75C38.8769 18.75 40 19.873 40 21.25V28.75C40 30.1269 38.877 31.25 37.5 31.25C36.1231 31.25 35 30.127 35 28.75V21.25C35 19.8731 36.1231 18.75 37.5 18.75Z"/>
</svg>
